<svg width="512" height="512" viewBox="0 0 12 12" fill="inherit" xmlns="http://www.w3.org/2000/svg">
  <path id="account_circle_2"
        d="M2.925 8.55C3.35 8.225 3.825 7.96875 4.35 7.78125C4.875 7.59375 5.425 7.5 6 7.5C6.575 7.5 7.125 7.59375 7.65 7.78125C8.175 7.96875 8.65 8.225 9.075 8.55C9.36667 8.20833 9.59375 7.82083 9.75625 7.3875C9.91875 6.95417 10 6.49167 10 6C10 4.89167 9.61042 3.94792 8.83125 3.16875C8.05208 2.38958 7.10833 2 6 2C4.89167 2 3.94792 2.38958 3.16875 3.16875C2.38958 3.94792 2 4.89167 2 6C2 6.49167 2.08125 6.95417 2.24375 7.3875C2.40625 7.82083 2.63333 8.20833 2.925 8.55ZM6 6.5C5.50833 6.5 5.09375 6.33125 4.75625 5.99375C4.41875 5.65625 4.25 5.24167 4.25 4.75C4.25 4.25833 4.41875 3.84375 4.75625 3.50625C5.09375 3.16875 5.50833 3 6 3C6.49167 3 6.90625 3.16875 7.24375 3.50625C7.58125 3.84375 7.75 4.25833 7.75 4.75C7.75 5.24167 7.58125 5.65625 7.24375 5.99375C6.90625 6.33125 6.49167 6.5 6 6.5ZM6 11C5.30833 11 4.65833 10.8687 4.05 10.6062C3.44167 10.3438 2.9125 9.9875 2.4625 9.5375C2.0125 9.0875 1.65625 8.55833 1.39375 7.95C1.13125 7.34167 1 6.69167 1 6C1 5.30833 1.13125 4.65833 1.39375 4.05C1.65625 3.44167 2.0125 2.9125 2.4625 2.4625C2.9125 2.0125 3.44167 1.65625 4.05 1.39375C4.65833 1.13125 5.30833 1 6 1C6.69167 1 7.34167 1.13125 7.95 1.39375C8.55833 1.65625 9.0875 2.0125 9.5375 2.4625C9.9875 2.9125 10.3438 3.44167 10.6062 4.05C10.8687 4.65833 11 5.30833 11 6C11 6.69167 10.8687 7.34167 10.6062 7.95C10.3438 8.55833 9.9875 9.0875 9.5375 9.5375C9.0875 9.9875 8.55833 10.3438 7.95 10.6062C7.34167 10.8687 6.69167 11 6 11ZM6 10C6.44167 10 6.85833 9.93542 7.25 9.80625C7.64167 9.67708 8 9.49167 8.325 9.25C8 9.00833 7.64167 8.82292 7.25 8.69375C6.85833 8.56458 6.44167 8.5 6 8.5C5.55833 8.5 5.14167 8.56458 4.75 8.69375C4.35833 8.82292 4 9.00833 3.675 9.25C4 9.49167 4.35833 9.67708 4.75 9.80625C5.14167 9.93542 5.55833 10 6 10ZM6 5.5C6.21667 5.5 6.39583 5.42917 6.5375 5.2875C6.67917 5.14583 6.75 4.96667 6.75 4.75C6.75 4.53333 6.67917 4.35417 6.5375 4.2125C6.39583 4.07083 6.21667 4 6 4C5.78333 4 5.60417 4.07083 5.4625 4.2125C5.32083 4.35417 5.25 4.53333 5.25 4.75C5.25 4.96667 5.32083 5.14583 5.4625 5.2875C5.60417 5.42917 5.78333 5.5 6 5.5Z"/>
</svg>
